<?xml version="1.0" encoding="utf-8"?>
<!-- Generator: Adobe Illustrator 23.0.3, SVG Export Plug-In . SVG Version: 6.00 Build 0)  -->
<svg version="1.1" id="Layer_1" xmlns="http://www.w3.org/2000/svg" xmlns:xlink="http://www.w3.org/1999/xlink" x="0px" y="0px"
	 viewBox="0 0 448 512" style="enable-background:new 0 0 448 512;" xml:space="preserve">
<path d="M448,259.4v26.3c0,23.2-57.8,42.1-128.9,42.1s-128.9-18.9-128.9-42.1v-26.3c0-23.2,57.8-42.1,128.9-42.1
	S448,236.2,448,259.4z M448,318.6v59.2c0,23.2-57.8,42.1-128.9,42.1S190.1,401,190.1,377.8v-59.2c27.7,19.1,78.4,28,128.9,28
	S420.3,337.7,448,318.6z M448,410.7v59.2c0,23.2-57.8,42.1-128.9,42.1s-128.9-18.9-128.9-42.1v-59.2c27.7,19.1,78.4,28,128.9,28
	S420.3,429.8,448,410.7z"/>
</svg>
