<?xml version="1.0" encoding="utf-8"?>
<!-- Generator: Adobe Illustrator 23.0.3, SVG Export Plug-In . SVG Version: 6.00 Build 0)  -->
<svg version="1.1" id="Layer_1" xmlns="http://www.w3.org/2000/svg" xmlns:xlink="http://www.w3.org/1999/xlink" x="0px" y="0px"
	 viewBox="0 0 512 512" style="enable-background:new 0 0 512 512;" xml:space="preserve">
<path d="M488,480H280c-13.3,0-24-10.7-24-24V280c0-13.3,10.7-24,24-24h208c13.3,0,24,10.7,24,24v176C512,469.3,501.3,480,488,480z
	 M320,300c-11,0-20,9-20,20s9,20,20,20s20-9,20-20S331,300,320,300z M320,348c-11,0-20,9-20,20s9,20,20,20s20-9,20-20
	S331,348,320,348z M320,396c-11,0-20,9-20,20s9,20,20,20s20-9,20-20S331,396,320,396z M464,328v-16c0-3.3-2.7-6-6-6H358
	c-3.3,0-6,2.7-6,6v16c0,3.3,2.7,6,6,6h100C461.3,334,464,331.3,464,328z M464,376v-16c0-3.3-2.7-6-6-6H358c-3.3,0-6,2.7-6,6v16
	c0,3.3,2.7,6,6,6h100C461.3,382,464,379.3,464,376z M464,424v-16c0-3.3-2.7-6-6-6H358c-3.3,0-6,2.7-6,6v16c0,3.3,2.7,6,6,6h100
	C461.3,430,464,427.3,464,424z"/>
</svg>
