<?xml version="1.0" encoding="utf-8"?>
<!-- Generator: Adobe Illustrator 23.0.3, SVG Export Plug-In . SVG Version: 6.00 Build 0)  -->
<svg version="1.1" id="Layer_1" xmlns="http://www.w3.org/2000/svg" xmlns:xlink="http://www.w3.org/1999/xlink" x="0px" y="0px"
	 viewBox="0 0 448 512" style="enable-background:new 0 0 448 512;" xml:space="preserve">
<path d="M430.1,328.2h-80.4v-80.4c0-9.9-8-17.9-17.9-17.9h-17.9c-9.9,0-17.9,8-17.9,17.9v80.4h-80.4c-9.9,0-17.9,8-17.9,17.9v17.9
	c0,9.9,8,17.9,17.9,17.9h80.4v80.4c0,9.9,8,17.9,17.9,17.9h17.9c9.9,0,17.9-8,17.9-17.9v-80.4h80.4c9.9,0,17.9-8,17.9-17.9v-17.9
	C448,336.2,440,328.2,430.1,328.2z"/>
</svg>
