<?xml version="1.0" encoding="utf-8"?>
<!-- Generator: Adobe Illustrator 23.0.3, SVG Export Plug-In . SVG Version: 6.00 Build 0)  -->
<svg version="1.1" id="Layer_1" xmlns="http://www.w3.org/2000/svg" xmlns:xlink="http://www.w3.org/1999/xlink" x="0px" y="0px"
	 viewBox="0 0 512 512" style="enable-background:new 0 0 512 512;" xml:space="preserve">
<path d="M508.5,477.4l-49.9-49.9c-2.3-2.3-5.3-3.5-8.5-3.5H442c13.8-17.7,22-39.9,22-64c0-57.5-46.6-104-104-104s-104,46.6-104,104
	s46.6,104,104,104c24.2,0,46.4-8.2,64-22v8.2c0,3.2,1.3,6.3,3.5,8.5l49.9,49.9c4.7,4.7,12.3,4.7,17,0l14.2-14.2
	C513.1,489.7,513.1,482.1,508.5,477.4z M360,424c-35.4,0-64-28.6-64-64c0-35.4,28.6-64,64-64c35.4,0,64,28.6,64,64
	C424,395.4,395.4,424,360,424z"/>
</svg>
